<?xml version="1.0" encoding="UTF-8"?>
<!DOCTYPE svg PUBLIC "-//W3C//DTD SVG 1.1//EN" "http://www.w3.org/Graphics/SVG/1.1/DTD/svg11.dtd">
<!-- Creator: CorelDRAW 2020 (64-Bit) -->
<svg xmlns="http://www.w3.org/2000/svg" xml:space="preserve" width="38mm" height="38mm" version="1.1" style="shape-rendering:geometricPrecision; text-rendering:geometricPrecision; image-rendering:optimizeQuality; fill-rule:evenodd; clip-rule:evenodd"
viewBox="0 0 5107.71 5107.71"
 xmlns:xlink="http://www.w3.org/1999/xlink"
 xmlns:xodm="http://www.corel.com/coreldraw/odm/2003">
 <defs>
  <style type="text/css">
   <![CDATA[
    .fil0 {fill:#D2D3D5}
    .fil1 {fill:#6572B5;fill-rule:nonzero}
   ]]>
  </style>
 </defs>
 <g id="Capa_x0020_1">
  <metadata id="CorelCorpID_0Corel-Layer"/>
  <rect class="fil0" x="-0" y="-0" width="5107.71" height="5107.71"/>
  <path class="fil1" d="M2681.63 2938.99c-14.4,24.14 -32.1,52.11 -47.19,74.69 -15.13,20.71 -32.8,41.39 -50.23,62.3l1.16 -226.8c48.39,19.53 96.5,52.11 101.12,64.68 2.1,0.47 5.85,4.45 -4.85,25.12zm-76.04 553.7c-6.26,11.86 -15.79,20.48 -24.17,30.92l1.17 -184.03c5.82,6.3 12.31,13.8 16.98,21.86 25.11,40.74 32.29,92.37 6.02,131.25zm82.52 296.64c37.46,45.86 36.78,96.27 -9.02,140.95 -30.71,37.5 -66.02,74.72 -100.69,108.2l2.1 -352.46c39.26,32.61 77.88,64.87 107.61,103.31zm-275.71 145.6c-46.49,-45.38 -47.19,-95.81 -10,-142.13 26.99,-35.36 62.33,-65.15 99.06,-97.01l-2.1 331.54c-29.76,-29.58 -59.95,-60.74 -86.97,-92.41zm72.09 -445.27c-25.59,-38.16 -20.69,-89.09 4.65,-130.49 3.7,-6.26 10.47,-13.75 14.4,-17.69l-1.14 171.47c-5.81,-7.69 -13.25,-14.95 -17.9,-23.29zm-79.04 -547.63c-10.69,-20.24 -6.29,-22.57 -4.68,-25.36 4.68,-12.14 56.74,-47.7 105.54,-65.58l-1.16 228.65c-17.41,-20.91 -36.72,-41.16 -51.12,-62.84 -16.55,-23.23 -33.48,-50.88 -48.59,-74.87zm2351.47 -1396.12c5.83,-5.12 9.06,-10.24 9.06,-10.24 -619.08,-3.7 -1497.36,-350.13 -1497.36,-350.13 0,0 -225.76,-140.27 -399.85,30.48 -128.57,124.71 -224.31,217.55 -275.48,266.39l1.38 -220.3c90.43,-17.97 160.88,-95.16 161.55,-189.86 0.48,-110.53 -88.75,-200.3 -198.97,-200.77 -109.74,-0.47 -200.2,87.92 -200.87,198.45 -0.71,95.41 69.03,172.6 159.25,191.94l-1.38 221.69c-49.52,-48.85 -145.1,-144.25 -272.01,-271.29 -171.34,-172.6 -399.41,-34.89 -399.41,-34.89 0,0 -882.45,335.76 -1501.07,332.2 0,0 2.54,5.17 8.86,10.54 188.5,13.88 596.28,23 1004.98,-94.28 0,0 -387.3,183.61 -996.89,104 60.02,60.98 301.77,243.34 954.11,30.96 133.46,-44.67 133.46,-44.67 45.81,0.24 0,0 -264.1,153.07 -706.05,194.51 0,0 12.55,33.48 61.64,66.29 119.22,-4.69 494.22,-31.63 857.11,-216.37 0,0 -321.77,244.01 -852.73,216.84 106.24,66.48 370.55,122.34 1020.09,-142.4 0,0 81.59,-22.1 24.65,10.48 -57.89,32.57 -469.61,207.02 -792.73,228.88 0,0 38.33,33.76 121.59,58.19 173.19,-29.3 516.79,-99.76 835.28,-254.73 0,0 -290.16,196.78 -820.65,258.48 154.58,38.4 449.36,46.75 940.81,-190.77 0,0 61.17,-9.81 14.22,12.1 -45.32,24.18 -359.89,193.8 -631.45,220.55 -20.93,0.9 69.96,33 213.21,33.95 120.89,-26.99 334.27,-92.37 532.16,-231.5 0,0 -167.86,170.8 -483.81,231.73 162.47,-5.54 378.68,-51.63 577.94,-208.68 0,0 160.65,108.39 241.55,144.71l-3.95 644.89c-66.27,-30.26 -130.21,-58.17 -190.41,-90.04 -49.73,-25.08 -97.18,-56.76 -127.84,-85.12 -14.45,-14.93 -43.5,-79.09 -6.08,-113.27 33.01,-13.28 89.73,-5.89 123.92,7.15l0.47 -3.7c68.81,12.81 130.85,-19.11 144.13,-95.82 11.41,-79.1 -17.9,-131.93 -84.87,-144.25l0 -2.85c-79.73,-16.73 -151.56,-19.96 -244.77,12.14 -45.11,17.41 -92.53,51.6 -122.77,99.16 -31.87,47.65 -42.77,101.15 -45.79,144.67 -1.38,22.29 -0.46,43.01 1.16,63.97 1.16,19.54 10,59.52 20.24,80.72 22.57,49.54 54.88,84.21 84.6,109.1 63.48,50.26 123.23,75.86 182.73,101.19 37.22,16.55 74.41,28.64 111.83,41.68 -27.21,23.52 -61.82,50.93 -81.37,103.51 -20.94,57 2.33,120.3 26.04,152.36 20.69,26.56 37.92,49.6 59.28,75.2 35.38,43.48 75.8,83.93 114.13,121.67 -23.24,29.73 -45.04,59.33 -63.67,97.92 -32.08,65.86 -37.18,158.23 13.24,220.55 22.8,32.1 49.52,59.13 76.52,82.37l-7.69 6.72c-42.81,43.29 -89.76,84.75 -125.33,142.65 -16.71,26.96 -32.54,62.29 -26.49,102.84 3.95,37.46 31.4,67.23 49.97,86.74 35.32,36.75 72.52,69.13 110.68,100.76l-0.46 82.31c-15.38,19.1 -24.4,40.07 -28.4,60.98 6.55,-20.91 19.32,-40.03 28.4,-59.61l-0.47 86.64 79.06 0.42 0.44 -90.76c19.75,28.44 31.13,62.37 22.31,100.1 6.95,-31.25 5.56,-64.72 -7.45,-94.98 -3.7,-8.8 -9.07,-14.41 -14.87,-21.82l0.46 -57.23c40.9,-34.41 84.37,-69.37 123.02,-109.64 19.48,-19.76 46.95,-49.02 51.8,-87.66 4.64,-40.03 -10.24,-74.44 -27.65,-103.08 -36.53,-57 -83.48,-97.44 -127.44,-142.34l-3.23 -3.28c25.54,-23.76 50.46,-48.85 73.71,-79.99 49.5,-62.6 45.1,-154.97 11.63,-219.4 -19.09,-40.5 -41.18,-70.28 -65.57,-100.3 39.26,-40.01 80.19,-79.56 115.3,-125.37 22.07,-26.08 39.02,-48.17 58.81,-76.82 24.85,-29.54 47.18,-95.12 26.24,-151.89 -19.02,-49.54 -49.48,-77.23 -76.21,-99.1 35.12,-13.27 70.9,-24.18 106.25,-39.54 59.71,-24.93 120.18,-52.82 182.48,-102.8 30,-25.18 61.59,-59.84 84.14,-110.1 10.44,-19.79 19.77,-61.6 20.01,-79.53 2.07,-20.96 2.07,-42.38 1.61,-64.48 -2.57,-44.01 -14.64,-96.08 -45.58,-144.91 -30.65,-46.28 -79.95,-81 -124.6,-97.73 -93.93,-31.68 -163.89,-27.65 -245.25,-11.86l0.93 2.8c-67.89,11.63 -96.67,66.76 -84.37,143.3 14.41,79.14 75.28,109.35 143.88,97.45l0 1.65c35.79,-10.9 91.13,-20.91 124.84,-6.73 37.89,34.42 8.86,98.87 -6.01,113.53 -30.23,30.73 -76.97,58.85 -127.44,84.92 -57.65,31.63 -119.7,58.85 -183.19,87.02l3.74 -642.56c82.99,-36.8 243.17,-141.93 243.17,-141.93 197.57,159.32 412.17,208.21 575.36,215.65 -313.59,-64.68 -480.98,-237.56 -480.98,-237.56 195.97,141.5 408.7,209.21 529.37,237.8 143.19,0.9 234.54,-30.26 212.71,-31.68 -270.36,-29.96 -582.6,-203.04 -628.85,-227.98 -45.81,-22.1 15.38,-11.61 15.38,-11.61 488.63,243.34 784.1,238.22 938.49,201.71 -530.06,-68.19 -816.02,-268.25 -816.02,-268.25 315.48,158.61 657.93,233.34 830.9,264.55 83.66,-23.29 121.82,-56.76 121.82,-56.76 -322.73,-25.61 -732.07,-204.99 -788.32,-237.8 -58.13,-33.52 23.94,-10.71 23.94,-10.71 644.16,272.46 911.08,220.06 1017.76,154.76 -530.3,20.87 -849.72,-227.08 -849.72,-227.08 360.36,189.11 734.89,220.3 854.12,226.37 49.1,-31.86 63.03,-65.62 63.03,-65.62 -441.24,-46.75 -704.42,-202.61 -704.42,-202.61 -86.68,-45.86 -86.68,-45.86 45.11,0.19 650.71,220.3 894.32,40.5 955.49,-19.77 -610.75,72.6 -995.91,-115.42 -995.91,-115.42 407.26,121.72 815.73,117.79 1004.26,105.89z"/>
 </g>
</svg>
