<svg xmlns="http://www.w3.org/2000/svg" xml:space="preserve" width="218.8" height="189" style="shape-rendering:geometricPrecision;text-rendering:geometricPrecision;image-rendering:optimizeQuality;fill-rule:evenodd;clip-rule:evenodd" viewBox="0 0 1782 1539.3"><path d="M1754.6 1183.5c-68 33.5-141.5 66.2-214.4 86.1-34.2 9.4-69 16-104.1 20l36.9 80.6c18.2-4.6 36.4-9.7 54.3-15.6 89.4-29 174.8-72.2 254.7-121.5l-27.4-49.6zm-536.5 209.9c-3.4-20-14.3-46.5-20.7-62l-27-64.8a455.5 455.5 0 0 1-185.6-118.8l-.3-.3C879.1 1029.1 844.7 905.3 844.7 749c0-67.6 7.6-135.6 26.7-200.5L805.2 391C717.3 505.8 681 640.4 681 785c0 215 86.1 424.4 280 532.8 79.9 44.7 166.1 69 257.1 75.5zm540.5-1173.5c-130.7-43.3-271-74.5-409.2-74.5-133 0-263.5 26-377.9 95.5l35.2 84.8C1095 246 1206.5 216 1324.9 216c67.6 0 139 8.3 201.8 34.7 47.9 20 92.2 49.8 120.4 94.2 15.6 24.5 26.9 54.7 35.9 82.2 12.8 39.3 22.7 80 31.3 120.5h54a2279.4 2279.4 0 0 1-11.3-221.3c0-35.5.8-71 1.6-106.5z" style="fill:#96989a"/><path d="M684.2 969.3c-58.2-.7-116.5-2.4-174.7-4.1l-13.6-.4 285.8-677.6L1067.2 965l-13.8.2-156.8 2.2c10.9 30 24.6 58.8 41.2 86.2l158.3 1.4h6.2l115 275.8 2 4.8 2 4.8 2.3 6 2.1 5.9 1.5 4.3 2.3 6.7 1.8 5.9 1.4 4.8 1 3.5.8 3.4 1 4.4.7 3 .5 3 .4 3 .3 1.9.1 1.8.2 2v.7l.1 1.8v1.5c.2 19.2-10.1 34-25.1 45.2-23.2 17.3-111.4 35.6-148.6 43.3v46.8c62-3 124-5.7 186-7.8 42.8-1.5 86-2.8 129-2.8 92.8 0 187.3 5.3 280.2 10.5V1492a3541.7 3541.7 0 0 1-105.7-32c-12-3.9-39-11.9-49.2-19a143.5 143.5 0 0 1-40.4-45.7l-.3-.4-252.2-550.2c-75.7-165-146.7-331.9-216.9-499.3l-32.8-78.8-10.6-25.8c-32.9-80-65.1-160.2-96.6-240.7H799l-295 683.6c-66.7 154.6-134 309.3-204 462.6a6539.7 6539.7 0 0 1-66.6 142.4c-13.6 28-27.6 56.7-43.2 83.8-15.2 25.2-35 53.7-59 71.7-32.7 23.9-89.9 39-131.1 48.3v46.6c78.6-5.7 158.3-10.3 237.1-10.3 34.4 0 69 1.3 103.4 2.8 49.2 2 98.5 4.8 147.7 7.7v-47.4c-8.8-2.6-17.6-5-26.4-7.4-29.3-6.2-58.8-12.6-87.7-20.2-10.6-2.8-31.8-8-41-13.8l-.3-.3c-10.5-7.4-17.6-17.7-17.6-30.9 0-19 21.5-67.7 29.1-85.5L460.7 1055l250.2-1.9a666.6 666.6 0 0 1-26.7-83.8z" style="fill:#3e4095"/></svg>