<?xml version="1.0" encoding="UTF-8"?>
<!DOCTYPE svg PUBLIC "-//W3C//DTD SVG 1.1//EN" "http://www.w3.org/Graphics/SVG/1.1/DTD/svg11.dtd">
<!-- Creator: CorelDRAW 2020 (64-Bit) -->
<svg xmlns="http://www.w3.org/2000/svg" xml:space="preserve" width="32.9151mm" height="25.0332mm" version="1.1" style="shape-rendering:geometricPrecision; text-rendering:geometricPrecision; image-rendering:optimizeQuality; fill-rule:evenodd; clip-rule:evenodd"
viewBox="0 0 3248 2470.23"
 xmlns:xlink="http://www.w3.org/1999/xlink"
 xmlns:xodm="http://www.corel.com/coreldraw/odm/2003">
 <defs>
  <style type="text/css">
   <![CDATA[
    .fil0 {fill:#6572B5;fill-rule:nonzero}
   ]]>
  </style>
 </defs>
 <g id="Capa_x0020_1">
  <metadata id="CorelCorpID_0Corel-Layer"/>
  <path class="fil0" d="M1717.8 1517.86c-10.57,17.72 -23.56,38.26 -34.65,54.84 -11.11,15.21 -24.08,30.38 -36.88,45.74l0.85 -166.5c35.52,14.34 70.84,38.26 74.24,47.48 1.54,0.35 4.29,3.27 -3.56,18.44zm-55.82 406.49c-4.6,8.7 -11.59,15.04 -17.74,22.7l0.86 -135.1c4.27,4.63 9.04,10.13 12.46,16.05 18.43,29.91 23.7,67.81 4.42,96.36zm60.58 217.77c27.5,33.67 27,70.67 -6.62,103.47 -22.55,27.53 -48.47,54.86 -73.92,79.44l1.54 -258.75c28.82,23.94 57.17,47.62 79,75.84zm-202.41 106.89c-34.13,-33.31 -34.65,-70.34 -7.34,-104.34 19.81,-25.96 45.76,-47.83 72.73,-71.22l-1.54 243.4c-21.85,-21.72 -44.01,-44.59 -63.84,-67.84zm52.92 -326.89c-18.79,-28.01 -15.19,-65.4 3.41,-95.8 2.71,-4.6 7.69,-10.09 10.57,-12.99l-0.84 125.88c-4.26,-5.64 -9.73,-10.97 -13.14,-17.1zm-58.02 -402.03c-7.84,-14.86 -4.62,-16.57 -3.43,-18.62 3.43,-8.91 41.65,-35.02 77.48,-48.15l-0.85 167.86c-12.78,-15.35 -26.96,-30.22 -37.53,-46.13 -12.15,-17.05 -24.58,-37.35 -35.67,-54.96zm1726.31 -1024.95c4.28,-3.76 6.65,-7.52 6.65,-7.52 -454.49,-2.71 -1099.28,-257.05 -1099.28,-257.05 0,0 -165.74,-102.98 -293.55,22.38 -94.39,91.55 -164.67,159.71 -202.24,195.57l1.02 -161.73c66.39,-13.19 118.11,-69.86 118.6,-139.38 0.36,-81.14 -65.16,-147.05 -146.07,-147.4 -80.56,-0.35 -146.97,64.55 -147.46,145.69 -0.52,70.04 50.68,126.71 116.91,140.91l-1.02 162.75c-36.35,-35.86 -106.52,-105.9 -199.7,-199.16 -125.79,-126.71 -293.22,-25.62 -293.22,-25.62 0,0 -647.84,246.5 -1102,243.88 0,0 1.87,3.8 6.5,7.74 138.39,10.19 437.76,16.88 737.8,-69.21 0,0 -284.33,134.79 -731.86,76.35 44.06,44.77 221.54,178.65 700.45,22.73 97.98,-32.79 97.98,-32.79 33.63,0.18 0,0 -193.88,112.37 -518.34,142.8 0,0 9.22,24.58 45.25,48.67 87.53,-3.44 362.83,-23.22 629.24,-158.84 0,0 -236.23,179.14 -626.02,159.19 78,48.81 272.04,89.82 748.89,-104.54 0,0 59.9,-16.22 18.1,7.7 -42.5,23.91 -344.76,151.98 -581.97,168.03 0,0 28.14,24.79 89.26,42.72 127.15,-21.51 379.4,-73.24 613.22,-187.01 0,0 -213.02,144.46 -602.47,189.76 113.48,28.19 329.89,34.32 690.69,-140.05 0,0 44.91,-7.2 10.44,8.88 -33.27,17.75 -264.21,142.27 -463.57,161.91 -15.36,0.66 51.36,24.23 156.52,24.93 88.75,-19.81 245.4,-67.81 390.68,-169.95 0,0 -123.23,125.39 -355.18,170.12 119.27,-4.07 278.01,-37.9 424.29,-153.2 0,0 117.94,79.57 177.33,106.24l-2.9 473.44c-48.65,-22.21 -95.59,-42.71 -139.79,-66.1 -36.51,-18.41 -71.34,-41.67 -93.85,-62.49 -10.61,-10.96 -31.93,-58.06 -4.46,-83.16 24.24,-9.75 65.88,-4.32 90.97,5.25l0.35 -2.71c50.51,9.4 96.06,-14.03 105.81,-70.35 8.38,-58.07 -13.14,-96.85 -62.31,-105.9l0 -2.09c-58.54,-12.29 -111.27,-14.65 -179.69,8.91 -33.12,12.78 -67.93,37.88 -90.13,72.79 -23.4,34.98 -31.4,74.26 -33.62,106.21 -1.02,16.36 -0.34,31.58 0.85,46.96 0.85,14.35 7.34,43.69 14.86,59.26 16.57,36.37 40.29,61.82 62.11,80.1 46.61,36.9 90.47,55.69 134.15,74.28 27.32,12.15 54.63,21.03 82.1,30.6 -19.97,17.27 -45.38,37.39 -59.74,75.99 -15.37,41.85 1.71,88.32 19.11,111.85 15.19,19.5 27.84,36.41 43.52,55.21 25.97,31.92 55.64,61.61 83.79,89.32 -17.06,21.83 -33.07,43.56 -46.74,71.89 -23.55,48.35 -27.29,116.16 9.72,161.91 16.74,23.56 36.35,43.41 56.18,60.47l-5.64 4.93c-31.43,31.78 -65.9,62.22 -92.01,104.73 -12.27,19.79 -23.89,45.73 -19.45,75.5 2.9,27.5 23.05,49.36 36.69,63.68 25.93,26.98 53.24,50.75 81.25,73.97l-0.34 60.43c-11.29,14.02 -17.91,29.42 -20.85,44.77 4.81,-15.35 14.18,-29.39 20.85,-43.76l-0.35 63.61 58.04 0.31 0.33 -66.63c14.5,20.88 22.85,45.79 16.38,73.49 5.1,-22.94 4.09,-47.51 -5.47,-69.73 -2.71,-6.46 -6.66,-10.58 -10.91,-16.02l0.34 -42.02c30.03,-25.26 61.94,-50.93 90.31,-80.49 14.3,-14.51 34.47,-35.99 38.03,-64.36 3.4,-29.39 -7.52,-54.65 -20.3,-75.68 -26.82,-41.85 -61.29,-71.53 -93.56,-104.5l-2.37 -2.41c18.75,-17.45 37.04,-35.86 54.12,-58.72 36.34,-45.95 33.11,-113.77 8.54,-161.07 -14.01,-29.73 -30.24,-51.6 -48.14,-73.63 28.82,-29.38 58.87,-58.41 84.65,-92.04 16.2,-19.14 28.65,-35.37 43.17,-56.39 18.25,-21.69 34.64,-69.83 19.26,-111.51 -13.96,-36.37 -36.32,-56.7 -55.95,-72.76 25.78,-9.74 52.05,-17.75 78.01,-29.03 43.83,-18.3 88.23,-38.78 133.97,-75.47 22.02,-18.48 45.21,-43.93 61.77,-80.83 7.67,-14.53 14.52,-45.22 14.69,-58.39 1.52,-15.38 1.52,-31.11 1.18,-47.34 -1.88,-32.31 -10.75,-70.54 -33.46,-106.38 -22.5,-33.97 -58.69,-59.46 -91.47,-71.75 -68.96,-23.26 -120.32,-20.3 -180.05,-8.7l0.68 2.05c-49.84,8.54 -70.97,49.01 -61.94,105.2 10.58,58.1 55.27,80.27 105.63,71.54l0 1.21c26.28,-8 66.9,-15.35 91.65,-4.94 27.82,25.27 6.5,72.59 -4.41,83.34 -22.19,22.56 -56.5,43.2 -93.56,62.34 -42.32,23.22 -87.87,43.2 -134.49,63.88l2.74 -471.73c60.92,-27.02 178.52,-104.19 178.52,-104.19 145.05,116.96 302.59,152.85 422.39,158.32 -230.22,-47.48 -353.11,-174.4 -353.11,-174.4 143.87,103.88 300.04,153.59 388.63,174.58 105.12,0.66 172.18,-22.21 156.16,-23.26 -198.48,-22 -427.71,-149.06 -461.67,-167.37 -33.63,-16.22 11.29,-8.53 11.29,-8.53 358.72,178.65 575.64,174.89 688.98,148.09 -389.14,-50.06 -599.08,-196.93 -599.08,-196.93 231.61,116.44 483.01,171.31 610,194.22 61.42,-17.1 89.43,-41.67 89.43,-41.67 -236.93,-18.8 -537.44,-150.49 -578.74,-174.58 -42.68,-24.61 17.57,-7.86 17.57,-7.86 472.91,200.02 668.86,161.56 747.18,113.62 -389.32,15.32 -623.81,-166.71 -623.81,-166.71 264.56,138.83 539.51,161.73 627.04,166.18 36.05,-23.39 46.27,-48.17 46.27,-48.17 -323.93,-34.32 -517.14,-148.75 -517.14,-148.75 -63.64,-33.67 -63.64,-33.67 33.12,0.14 477.71,161.73 656.56,29.73 701.46,-14.52 -448.37,53.3 -731.14,-84.73 -731.14,-84.73 298.99,89.36 598.86,86.47 737.26,77.74z"/>
 </g>
</svg>
